<svg xmlns="http://www.w3.org/2000/svg" xmlns:xlink="http://www.w3.org/1999/xlink" width="0" height="0" style="position:absolute">
	
		<symbol id="icon-bitcoin" viewBox="0 0 512 512">
			<path d="M256 0C114.848 0 0 114.848 0 256s114.848 256 256 256 256-114.848 256-256S397.152 0 256 0zm0 480C132.48 480 32 379.52 32 256S132.48 32 256 32s224 100.48 224 224-100.48 224-224 224z"></path><path d="M331.744 249.856C344.224 236.928 352 219.392 352 200c0-36.96-28.096-67.168-64-71.2V112c0-8.832-7.168-16-16-16s-16 7.168-16 16v16h-32v-16c0-8.832-7.168-16-16-16s-16 7.168-16 16v16h-16c-8.832 0-16 7.168-16 16v224c0 8.832 7.168 16 16 16h16v16c0 8.832 7.168 16 16 16s16-7.168 16-16v-16h32v16c0 8.832 7.168 16 16 16s16-7.168 16-16v-16h8c39.712 0 72-32.288 72-72 0-26.656-14.72-49.664-36.256-62.144zM192 160h88c22.048 0 40 17.952 40 40s-17.952 40-40 40h-88v-80zm104 192H192v-80h104c22.048 0 40 17.952 40 40s-17.952 40-40 40z"></path>
		</symbol>
	
		<symbol id="icon-facebook" viewBox="0 0 612 612">
			<path d="M612 306C612 137.004 474.995 0 306 0 137.004 0 0 137.004 0 306c0 168.995 137.004 306 306 306 168.995 0 306-137.005 306-306zm-584.182 0C27.818 152.36 152.36 27.818 306 27.818S584.182 152.36 584.182 306 459.64 584.182 306 584.182 27.818 459.64 27.818 306z"></path><path d="M317.739 482.617V306h58.279l9.208-58.529h-67.487v-29.348c0-15.272 5.007-29.849 26.928-29.849h43.813v-58.418h-62.201c-52.298 0-66.569 34.438-66.569 82.175v35.413h-35.885V306h35.885v176.617h58.029z"></path>
		</symbol>
	
		<symbol id="icon-fb" viewBox="0 0 430.113 430.114">
			<path d="M158.081 83.3v59.218h-43.385v72.412h43.385v215.183h89.122V214.936h59.805s5.601-34.721 8.316-72.685H247.54V92.74c0-7.4 9.717-17.354 19.321-17.354h48.557V.001h-66.021C155.878-.004 158.081 72.48 158.081 83.3z"></path>
		</symbol>
	
		<symbol id="icon-google-plus" viewBox="0 0 491.858 491.858">
			<path d="M377.472 224.957H201.319v58.718H308.79c-16.032 51.048-63.714 88.077-120.055 88.077-69.492 0-125.823-56.335-125.823-125.824 0-69.492 56.333-125.823 125.823-125.823 34.994 0 66.645 14.289 89.452 37.346l42.622-46.328c-34.04-33.355-80.65-53.929-132.074-53.929C84.5 57.193 0 141.693 0 245.928s84.5 188.737 188.736 188.737c91.307 0 171.248-64.844 188.737-150.989v-58.718l-.001-.001zm114.386-.1h-36.031v-36.031h-30.886v36.031H388.91v30.883h36.031v36.032h30.886V255.74h36.031z"></path>
		</symbol>
	
		<symbol id="icon-linkedin" viewBox="0 0 430.117 430.117">
			<path d="M430.117 261.543V420.56h-92.188V272.193c0-37.271-13.334-62.707-46.703-62.707-25.473 0-40.632 17.142-47.301 33.724-2.432 5.928-3.058 14.179-3.058 22.477V420.56h-92.219s1.242-251.285 0-277.32h92.21v39.309c-.187.294-.43.611-.606.896h.606v-.896c12.251-18.869 34.13-45.824 83.102-45.824 60.673-.001 106.157 39.636 106.157 124.818zM52.183 9.558C20.635 9.558 0 30.251 0 57.463c0 26.619 20.038 47.94 50.959 47.94h.616c32.159 0 52.159-21.317 52.159-47.94-.606-27.212-20-47.905-51.551-47.905zM5.477 420.56h92.184V143.24H5.477v277.32z"></path>
		</symbol>
	
		<symbol id="icon-telegram" viewBox="0 0 512 512">
			<path d="M437.019 74.981C388.667 26.628 324.379 0 256 0S123.333 26.628 74.981 74.981C26.628 123.333 0 187.621 0 256s26.628 132.667 74.981 181.019C123.333 485.372 187.621 512 256 512s132.667-26.628 181.019-74.981S512 324.379 512 256s-26.628-132.667-74.981-181.019zM256 495.832C123.756 495.832 16.168 388.244 16.168 256S123.756 16.168 256 16.168 495.832 123.756 495.832 256 388.244 495.832 256 495.832z"></path><path d="M400.989 98.637a8.082 8.082 0 0 0-8.577-.722L79.822 259.599a8.086 8.086 0 0 0 .098 14.412l81.764 40.88v81.006c0 2.12.721 4.218 2.18 5.757a8.109 8.109 0 0 0 5.905 2.557 8.072 8.072 0 0 0 3.927-1.018l93.544-51.969 71.597 30.684c1.523.653 3.209.923 4.839.619a8.097 8.097 0 0 0 6.485-6.372l18.115-90.577c1-5.003-2.826-9.67-7.928-9.67a8.08 8.08 0 0 0-7.927 6.496l-16.162 80.808-66.295-28.412a8.092 8.092 0 0 0-7.111.363l-85 47.223v-72.492c0-3.062-1.73-5.86-4.469-7.231l-72.015-36.007 283.53-146.654-24.605 123.023c-1 5.003 2.826 9.67 7.928 9.67a8.088 8.088 0 0 0 7.928-6.499l27.903-139.517a8.084 8.084 0 0 0-3.064-8.042z"></path><path d="M348.576 164.757a8.083 8.083 0 0 0-10.581-1.873l-140.126 86.232a8.084 8.084 0 0 0-3.847 6.885v86.232a8.082 8.082 0 0 0 15.313 3.616l31.75-63.5 106.863-106.863a8.087 8.087 0 0 0 .628-10.729zM228.725 271.842a8.094 8.094 0 0 0-1.513 2.101l-17.022 34.043v-47.468l77.636-47.777-59.101 59.101z"></path>
		</symbol>
	
		<symbol id="icon-tg" viewBox="0 0 300 300">
			<path d="M5.299 144.645l69.126 25.8 26.756 86.047c1.712 5.511 8.451 7.548 12.924 3.891l38.532-31.412a11.496 11.496 0 0 1 14.013-.391l69.498 50.457c4.785 3.478 11.564.856 12.764-4.926L299.823 29.22c1.31-6.316-4.896-11.585-10.91-9.259L5.218 129.402c-7.001 2.7-6.94 12.612.081 15.243zm91.57 12.066l135.098-83.207c2.428-1.491 4.926 1.792 2.841 3.726L123.313 180.87a23.112 23.112 0 0 0-7.163 13.829l-3.798 28.146c-.503 3.758-5.782 4.131-6.819.494l-14.607-51.325c-1.673-5.854.765-12.107 5.943-15.303z"></path>
		</symbol>
	
		<symbol id="icon-twit" viewBox="0 0 612 612">
			<path d="M612 116.258a250.714 250.714 0 0 1-72.088 19.772c25.929-15.527 45.777-40.155 55.184-69.411-24.322 14.379-51.169 24.82-79.775 30.48-22.907-24.437-55.49-39.658-91.63-39.658-69.334 0-125.551 56.217-125.551 125.513 0 9.828 1.109 19.427 3.251 28.606-104.326-5.24-196.835-55.223-258.75-131.174-10.823 18.51-16.98 40.078-16.98 63.101 0 43.559 22.181 81.993 55.835 104.479a125.556 125.556 0 0 1-56.867-15.756v1.568c0 60.806 43.291 111.554 100.693 123.104-10.517 2.83-21.607 4.398-33.08 4.398-8.107 0-15.947-.803-23.634-2.333 15.985 49.907 62.336 86.199 117.253 87.194-42.947 33.654-97.099 53.655-155.916 53.655-10.134 0-20.116-.612-29.944-1.721 55.567 35.681 121.536 56.485 192.438 56.485 230.948 0 357.188-191.291 357.188-357.188l-.421-16.253c24.666-17.593 46.005-39.697 62.794-64.861z"></path>
		</symbol>
	
		<symbol id="icon-twitter" viewBox="0 0 612 612">
			<path d="M437.219 245.162c0-3.088-.056-6.148-.195-9.18 13.214-9.848 24.675-22.171 33.744-36.275a129.554 129.554 0 0 1-38.835 10.626c13.965-8.596 24.675-22.338 29.738-38.834-13.075 7.928-27.54 13.603-42.924 16.552-12.323-14.021-29.904-22.95-49.35-23.284-37.332-.612-67.598 30.934-67.598 70.463 0 5.619.584 11.072 1.752 16.329-56.22-3.616-106.042-32.881-139.369-77-5.814 10.571-9.152 22.922-9.152 36.164 0 25.037 11.934 47.291 30.071 60.421-11.099-.5-21.503-3.866-30.627-9.375v.918c0 34.996 23.312 64.316 54.245 71.159a64.033 64.033 0 0 1-17.804 2.421 61.759 61.759 0 0 1-12.713-1.392c8.596 28.681 33.577 49.628 63.147 50.323-23.145 19.194-52.298 30.655-83.955 30.572-5.453 0-10.849-.361-16.135-1.029 29.933 20.53 65.456 32.491 103.65 32.491 124.321.029 192.31-108.184 192.31-202.07z"></path><path d="M612 306C612 137.004 474.995 0 306 0 137.004 0 0 137.004 0 306c0 168.995 137.004 306 306 306 168.995 0 306-137.005 306-306zm-584.182 0C27.818 152.36 152.36 27.818 306 27.818S584.182 152.36 584.182 306 459.64 584.182 306 584.182 27.818 459.64 27.818 306z"></path>
		</symbol>
	
</svg>
